# xmcd CD database file
#
# Track frame offsets:
#	150
#	18146
#	30744
#	49786
#	64395
#	79685
#	105934
#	126307
#	147682
#	164248
#	181172
#	198439
#	220962
#
# Disc length: 3130 seconds
#
# Revision: 0
# Processed by: cddbd v1.5.1PL0 Copyright (c) Steve Scherf et al.
# Submitted via: CDex 1.51
#
DISCID=bd0c380d
DTITLE=Tough Cookies - Coming out
DYEAR=1999
DGENRE=Country
TTITLE0=Man! I Feel Like A Woman
TTITLE1=More than I Wanted To Know
TTITLE2=Piece Of My Heart
TTITLE3=When Love Starts Talking
TTITLE4=Lucky In Love
TTITLE5=Heaven Help My Heart
TTITLE6=On My Own
TTITLE7=Love´s Funny That Way
TTITLE8=Heads Carolina, tails California
TTITLE9=One Way Ticket
TTITLE10=I Feel Lucky
TTITLE11=You Dont Have To Go Home Tonight
TTITLE12=Asking For The Moon
EXTD=YEAR: 1999
EXTT0=
EXTT1=
EXTT2=
EXTT3=
EXTT4=
EXTT5=
EXTT6=
EXTT7=
EXTT8=
EXTT9=
EXTT10=
EXTT11=
EXTT12=
PLAYORDER=
